<svg width="67" height="61" viewBox="0 0 67 61" fill="none" xmlns="http://www.w3.org/2000/svg">
<g id="Mixtapes Icon">
<path id="Vector 6" d="M44 7.00005C44 7.00005 64.486 5.76802 65.9312 29.6341C67.3763 53.5001 42 56 42 56" stroke="white" stroke-width="2"/>
<path id="Vector 7" d="M43.7507 10.5092C43.7507 10.5092 61.6829 9.45346 62.9479 29.9056C64.213 50.3577 42 52.5 42 52.5" stroke="white" stroke-width="2"/>
<path id="Vector 5" d="M1 38C5.25709 34.7666 9 23 9 22.5C9 22 9.47656 39.5 9.5 40.5C9.52344 41.5 15.0234 15.5 15.0234 17C15.0234 18.5 17 37.5 17 45C17 52.5 23.5 14 23.5 15C23.5 16 23 49.5 23.5 48.5C24 47.5 31 9 31 9C31.3482 8.1151 31.5526 7.79962 32 9C32 9 32 57 32.5 55.5C33 54 37.5 3.5 37.5 5.5C37.5 7.5 40.5 55 40.5 59.5C40.5 64 43 1 43 1" stroke="white" stroke-width="2"/>
<rect id="Rectangle 35" x="45" y="11.5" width="2" height="3" fill="white"/>
<rect id="Rectangle 36" x="50.6057" y="12" width="2" height="3.52569" transform="rotate(9.89328 50.6057 12)" fill="white"/>
<rect id="Rectangle 37" x="57.2814" y="15" width="2" height="4.34774" transform="rotate(49.0011 57.2814 15)" fill="white"/>
<rect id="Rectangle 38" x="60.196" y="20" width="2" height="4.34774" transform="rotate(74.823 60.196 20)" fill="white"/>
<rect id="Rectangle 39" x="62.3477" y="31.5" width="2" height="4.34774" transform="rotate(90 62.3477 31.5)" fill="white"/>
<rect id="Rectangle 41" x="61.7502" y="38.783" width="2" height="4.34774" transform="rotate(121.674 61.7502 38.783)" fill="white"/>
<rect id="Rectangle 42" x="59.4572" y="44.1306" width="2" height="4.34774" transform="rotate(136.058 59.4572 44.1306)" fill="white"/>
<rect id="Rectangle 43" x="54.489" y="47.9426" width="2" height="4.34774" transform="rotate(155.358 54.489 47.9426)" fill="white"/>
<rect id="Rectangle 44" x="49.8064" y="50.2649" width="2" height="4.34774" transform="rotate(168.801 49.8064 50.2649)" fill="white"/>
<rect id="Rectangle 45" x="45.1194" y="51.8462" width="2" height="4.34774" transform="rotate(178.418 45.1194 51.8462)" fill="white"/>
<rect id="Rectangle 40" x="61.2732" y="25.5" width="2" height="4.34774" transform="rotate(79.3689 61.2732 25.5)" fill="white"/>
</g>
</svg>
